<svg xmlns="http://www.w3.org/2000/svg" width="32" height="32" fill="none"><path fill="#008282" stroke="#008282" stroke-linejoin="round" stroke-width=".4" d="M16.967 25.667c0 .11.09.2.2.2h7.206c1.78 0 3.207-.473 4.257-1.44 1.054-.98 1.57-2.345 1.57-4.067 0-1.437-.35-2.614-1.068-3.512-.496-.62-1.163-1.1-1.993-1.445q.578-.434.958-1.044c.485-.777.72-1.731.72-2.852 0-1.504-.417-2.679-1.283-3.492-.858-.823-2.156-1.215-3.852-1.215h-6.515a.2.2 0 0 0-.2.2zm8.88-3.775-.002.001c-.465.349-1.105.534-1.94.534h-3.38v-4.854h3.38c.775 0 1.408.175 1.911.513.463.31.726.916.726 1.9 0 .968-.252 1.579-.696 1.906Zm-1.05-8.216-.002.002c-.327.291-.842.455-1.582.455h-2.687V10.24h2.687c.74 0 1.255.164 1.582.456l.004.003c.323.275.51.755.51 1.501 0 .716-.186 1.19-.512 1.476ZM3.506 25.158h.002q1 .3 2.165.506 1.17.22 2.282.221c1.526 0 2.768-.172 3.714-.526h.001c.944-.358 1.677-.818 2.184-1.389q.746-.837 1.006-1.787.25-.933.25-1.734c0-1.055-.233-1.955-.712-2.688-.466-.734-1.16-1.35-2.073-1.85q-1.345-.756-3.309-1.376a30 30 0 0 1-1.923-.675c-.522-.215-.91-.466-1.175-.747-.249-.264-.381-.618-.381-1.082 0-.567.227-.975.686-1.254.478-.29 1.176-.446 2.117-.446q1.346 0 2.642.353h.002a18 18 0 0 1 2.818 1.016.2.2 0 0 0 .28-.163l.334-3.362a.2.2 0 0 0-.124-.206q-1.07-.43-2.568-.791A13 13 0 0 0 8.545 6.8c-1.465 0-2.706.225-3.714.685-.997.45-1.757 1.081-2.269 1.898q-.763 1.21-.762 2.75c0 1.039.229 1.911.702 2.603q.698 1.017 1.877 1.678l.001.001a17 17 0 0 0 2.61 1.143q1.434.499 2.349.893l.002.001c.6.25 1.029.531 1.301.835l.002.002c.258.28.396.66.396 1.16 0 .643-.238 1.097-.704 1.398-.488.315-1.148.481-1.996.481a9.2 9.2 0 0 1-2.035-.226 14.4 14.4 0 0 1-1.975-.595 23 23 0 0 1-1.858-.801.2.2 0 0 0-.286.158l-.385 3.49a.2.2 0 0 0 .111.202q.598.292 1.594.602Z"/></svg>